<svg xmlns="http://www.w3.org/2000/svg" xmlns:xlink="http://www.w3.org/1999/xlink" xmlns:lucid="lucid" width="2582" height="1081"><g transform="translate(-139 -280.00000000000006)" lucid:page-tab-id="18_45"><path d="M0 0h3360v2560H0z" fill="#fff"/><path d="M140 376a16 16 0 0 1 16-16h84v1000h-84a16 16 0 0 1-16-16z" stroke="#3a414a" stroke-width="2" fill="#9391ff"/><path d="M240 360h2464a16 16 0 0 1 16 16v968a16 16 0 0 1-16 16H240z" stroke="#3a414a" stroke-width="2" fill="none"/><use xlink:href="#a" transform="matrix(-1.8369701987210297e-16,-1,1,-1.8369701987210297e-16,140.0000000000001,1360) translate(109.287109375 64.55078125)"/><use xlink:href="#b" transform="matrix(-1.8369701987210297e-16,-1,1,-1.8369701987210297e-16,140.0000000000001,1360) translate(275.732421875 64.55078125)"/><use xlink:href="#c" transform="matrix(-1.8369701987210297e-16,-1,1,-1.8369701987210297e-16,140.0000000000001,1360) translate(334.794921875 64.55078125)"/><use xlink:href="#d" transform="matrix(-1.8369701987210297e-16,-1,1,-1.8369701987210297e-16,140.0000000000001,1360) translate(507.138671875 64.55078125)"/><use xlink:href="#e" transform="matrix(-1.8369701987210297e-16,-1,1,-1.8369701987210297e-16,140.0000000000001,1360) translate(593.037109375 64.55078125)"/><use xlink:href="#f" transform="matrix(-1.8369701987210297e-16,-1,1,-1.8369701987210297e-16,140.0000000000001,1360) translate(668.662109375 64.55078125)"/><use xlink:href="#g" transform="matrix(-1.8369701987210297e-16,-1,1,-1.8369701987210297e-16,140.0000000000001,1360) translate(727.197265625 64.55078125)"/><path d="M240 368a8 8 0 0 1 8-8h2464a8 8 0 0 1 8 8v324a8 8 0 0 1-8 8H248a8 8 0 0 1-8-8zM240 708a8 8 0 0 1 8-8h2464a8 8 0 0 1 8 8v644a8 8 0 0 1-8 8H248a8 8 0 0 1-8-8z" stroke="#000" stroke-width="2" fill-opacity="0"/><path d="M380 566.1c0 16.56-13.43 30-30 30s-30-13.44-30-30c0-16.58 13.43-30 30-30s30 13.42 30 30z" stroke="#333" fill="#d2d3d5"/><use xlink:href="#h" transform="matrix(1,0,0,1,320,598.0870137853572) translate(9.19205729166666 19.21666666666667)"/><path d="M480 525a5 5 0 0 1 5-5h146.07a5 5 0 0 1 5 5v82.17a5 5 0 0 1-5 5H485a5 5 0 0 1-5-5z" stroke="#333" stroke-width="2" fill="#cfe4ff"/><path d="M489.42 562.92h34.14V551.6s-3.3-5.67-10.04-7.48h-13.1c-6.28 1.93-11.12 8.3-11.12 8.3l.12 10.5z" stroke="#000" stroke-width="2" fill="#f4f6f7"/><path d="M489.42 562.92h34.14V551.6s-3.3-5.67-10.04-7.48h-13.1c-6.28 1.93-11.12 8.3-11.12 8.3l.12 10.5zM496.86 556.76v5.56M516.58 556.88v5.8" stroke="#000" stroke-width="2" fill="none"/><path d="M514.7 536.5c0-4.32-3.45-7.82-7.7-7.82-4.23 0-7.66 3.5-7.66 7.83 0 4.34 3.43 7.86 7.67 7.86 4.25 0 7.7-3.52 7.7-7.85z" stroke="#000" stroke-width="2" fill="#020202"/><path d="M514.7 536.5c0-4.32-3.45-7.82-7.7-7.82-4.23 0-7.66 3.5-7.66 7.83 0 4.34 3.43 7.86 7.67 7.86 4.25 0 7.7-3.52 7.7-7.85z" stroke="#000" stroke-width="2" fill="none"/><path d="M500 538.2s3.98-3.5 7.6-2.62c3.63.9 6.57-.98 6.57-.98.34 2.43.06 5.4-2.07 8.07 0 0 1.54 1.1 1.54 2.17 0 1.1.18 2.7-1.42 4.33-1.6 1.63-7.8 1.8-9.57 0-1.77-1.8-1.77-2.64-1.77-3.84 0-1.2.83-1.82 1.77-2.78-1.53-.85-3.55-3.44-2.66-4.35z" stroke="#000" stroke-width="2" fill="#f0eff0"/><path d="M500 538.2s3.98-3.5 7.6-2.62c3.63.9 6.57-.98 6.57-.98.34 2.43.06 5.4-2.07 8.07 0 0 1.54 1.1 1.54 2.17 0 1.1.18 2.7-1.42 4.33-1.6 1.63-7.8 1.8-9.57 0-1.77-1.8-1.77-2.64-1.77-3.84 0-1.2.83-1.82 1.77-2.78-1.53-.85-3.55-3.44-2.66-4.35z" stroke="#000" stroke-width="2" fill="none"/><use xlink:href="#i" transform="matrix(1,0,0,1,480,520) translate(54.889505208333325 42.536197916666666)"/><use xlink:href="#j" transform="matrix(1,0,0,1,480,520) translate(116.292109375 42.536197916666666)"/><use xlink:href="#k" transform="matrix(1,0,0,1,480,520) translate(84.57765624999999 62.54088541666667)"/><path d="M2680 566.1c0 16.56-13.43 30-30 30s-30-13.44-30-30c0-16.58 13.43-30 30-30s30 13.42 30 30z" stroke="#000" stroke-width="6" fill="#fff"/><use xlink:href="#l" transform="matrix(1,0,0,1,2620,598.0870137853572) translate(17.18994140625 17.4375)"/><path d="M248 1071.5a8 8 0 0 1-8-8v-284a8 8 0 0 1 8-8h64a8 8 0 0 1 8 8v284a8 8 0 0 1-8 8z" fill="none"/><use xlink:href="#m" transform="matrix(6.123233995736766e-17,-1,1,6.123233995736766e-17,245,1066.4921875) translate(0 50.05078125)"/><path d="M228 624.78a8 8 0 0 1-8-8V288a8 8 0 0 1 8-8h110.02a8 8 0 0 1 8 8v328.78a8 8 0 0 1-8 8z" fill="none"/><use xlink:href="#n" transform="matrix(6.123233995736766e-17,-1,1,6.123233995736766e-17,225,619.7760277386741) translate(0 73.05078125)"/><path d="M620 765a5 5 0 0 1 5-5h150a5 5 0 0 1 5 5v90a5 5 0 0 1-5 5H625a5 5 0 0 1-5-5z" stroke="#333" stroke-width="2" fill="#b8f5ed"/><use xlink:href="#o" transform="matrix(1,0,0,1,620,760) translate(41.254023437499995 45.5625)"/><use xlink:href="#p" transform="matrix(1,0,0,1,620,760) translate(104.2891796875 45.5625)"/><use xlink:href="#q" transform="matrix(1,0,0,1,620,760) translate(13.216914062500004 67.341796875)"/><use xlink:href="#r" transform="matrix(1,0,0,1,620,760) translate(89.48839843750001 67.341796875)"/><use xlink:href="#s" transform="matrix(1,0,0,1,620,760) translate(116.06652343750001 67.341796875)"/><path d="M781.5 810h41.12" stroke="#333" fill="none"/><path d="M781.5 810.48h-.5v-.96h.5z" stroke="#333" stroke-width=".05" fill="#333"/><path d="M837.38 810l-14.26 4.63v-9.26z" stroke="#333" fill="#333"/><path d="M840 755a5 5 0 0 1 5-5h210a5 5 0 0 1 5 5v110a5 5 0 0 1-5 5H845a5 5 0 0 1-5-5z" stroke="#333" stroke-width="2" fill="#b8f5ed"/><use xlink:href="#t" transform="matrix(1,0,0,1,840,750) translate(10.174433593750004 44.625)"/><use xlink:href="#u" transform="matrix(1,0,0,1,840,750) translate(94.05724609375001 44.625)"/><use xlink:href="#v" transform="matrix(1,0,0,1,840,750) translate(113.58654296875001 44.625)"/><use xlink:href="#w" transform="matrix(1,0,0,1,840,750) translate(199.71935546875 44.625)"/><use xlink:href="#x" transform="matrix(1,0,0,1,840,750) translate(31.668085937500003 66.404296875)"/><use xlink:href="#y" transform="matrix(1,0,0,1,840,750) translate(51.5841015625 66.404296875)"/><use xlink:href="#r" transform="matrix(1,0,0,1,840,750) translate(114.083125 66.404296875)"/><use xlink:href="#z" transform="matrix(1,0,0,1,840,750) translate(140.66125 66.404296875)"/><use xlink:href="#A" transform="matrix(1,0,0,1,840,750) translate(16.036738281250003 88.18359375)"/><use xlink:href="#B" transform="matrix(1,0,0,1,840,750) translate(98.06505859375001 88.18359375)"/><use xlink:href="#u" transform="matrix(1,0,0,1,840,750) translate(113.23498046875001 88.18359375)"/><use xlink:href="#C" transform="matrix(1,0,0,1,840,750) translate(132.76427734375 88.18359375)"/><path d="M1061.5 810h54.53" stroke="#333" fill="none"/><path d="M1061.5 810.48h-.5v-.96h.5z" stroke="#333" stroke-width=".05" fill="#333"/><path d="M1130.8 810l-14.27 4.63v-9.26z" stroke="#333" fill="#333"/><path d="M1133.4 755a5 5 0 0 1 5-5h210a5 5 0 0 1 5 5v110a5 5 0 0 1-5 5h-210a5 5 0 0 1-5-5z" stroke="#333" stroke-width="2" fill="#b8f5ed"/><use xlink:href="#D" transform="matrix(1,0,0,1,1133.413761515902,750) translate(15.526972656250004 33.84375)"/><use xlink:href="#E" transform="matrix(1,0,0,1,1133.413761515902,750) translate(108.20763671875001 33.84375)"/><use xlink:href="#x" transform="matrix(1,0,0,1,1133.413761515902,750) translate(127.13048828125001 33.84375)"/><use xlink:href="#F" transform="matrix(1,0,0,1,1133.413761515902,750) translate(147.04650390625 33.84375)"/><use xlink:href="#r" transform="matrix(1,0,0,1,1133.413761515902,750) translate(6.764277343750004 55.623046875)"/><use xlink:href="#G" transform="matrix(1,0,0,1,1133.413761515902,750) translate(33.34240234375 55.623046875)"/><use xlink:href="#H" transform="matrix(1,0,0,1,1133.413761515902,750) translate(136.27990234375 55.623046875)"/><use xlink:href="#I" transform="matrix(1,0,0,1,1133.413761515902,750) translate(36.6075390625 77.40234375)"/><use xlink:href="#J" transform="matrix(1,0,0,1,1133.413761515902,750) translate(77.749140625 77.40234375)"/><use xlink:href="#K" transform="matrix(1,0,0,1,1133.413761515902,750) translate(142.3575390625 77.40234375)"/><use xlink:href="#L" transform="matrix(1,0,0,1,1133.413761515902,750) translate(168.5489453125 77.40234375)"/><use xlink:href="#M" transform="matrix(1,0,0,1,1133.413761515902,750) translate(20.646601562500003 99.181640625)"/><use xlink:href="#N" transform="matrix(1,0,0,1,1133.413761515902,750) translate(86.23937500000001 99.181640625)"/><path d="M1483 810l25-25 25 25-25 25z" stroke="#000" stroke-width="2" fill="#fff"/><path d="M1498 800l20 20m-20 0l20-20" stroke="#000" stroke-width="2" fill="none"/><path d="M1354.9 810h110.3" stroke="#333" fill="none"/><path d="M1354.93 810.48h-.52v-.96h.53z" stroke="#333" stroke-width=".05" fill="#333"/><path d="M1479.97 810l-14.26 4.63v-9.26z" stroke="#333" fill="#333"/><path d="M1387.4 818.47a8 8 0 0 1 8-8h47.68a8 8 0 0 1 8 8V827a8 8 0 0 1-8 8h-47.7a8 8 0 0 1-8-8z" fill="none"/><use xlink:href="#O" transform="matrix(1,0,0,1,1392.392042765902,815.47046875) translate(0 11.865234375)"/><use xlink:href="#P" transform="matrix(1,0,0,1,1392.392042765902,815.47046875) translate(23.490234375 11.865234375)"/><path d="M1398 905a5 5 0 0 1 5-5h210a5 5 0 0 1 5 5v110a5 5 0 0 1-5 5h-210a5 5 0 0 1-5-5z" stroke="#333" stroke-width="2" fill="#b8f5ed"/><use xlink:href="#Q" transform="matrix(1,0,0,1,1398.007511515902,900) translate(16.753046875000003 44.625)"/><use xlink:href="#E" transform="matrix(1,0,0,1,1398.007511515902,900) translate(77.36242187500001 44.625)"/><use xlink:href="#R" transform="matrix(1,0,0,1,1398.007511515902,900) translate(96.28527343750001 44.625)"/><use xlink:href="#S" transform="matrix(1,0,0,1,1398.007511515902,900) translate(131.9512890625 44.625)"/><use xlink:href="#T" transform="matrix(1,0,0,1,1398.007511515902,900) translate(38.4180859375 66.404296875)"/><use xlink:href="#K" transform="matrix(1,0,0,1,1398.007511515902,900) translate(140.5469921875 66.404296875)"/><use xlink:href="#L" transform="matrix(1,0,0,1,1398.007511515902,900) translate(166.7383984375 66.404296875)"/><use xlink:href="#U" transform="matrix(1,0,0,1,1398.007511515902,900) translate(68.046015625 88.18359375)"/><path d="M1508 836.9v45.72" stroke="#333" fill="none"/><path d="M1508.48 836.93h-.95v-1l.48.48.48-.46z" stroke="#333" stroke-width=".05" fill="#333"/><path d="M1508 897.38l-4.63-14.26h9.27z" stroke="#333" fill="#333"/><path d="M1743 1064l25-25 25 25-25 25z" stroke="#000" stroke-width="2" fill="#fff"/><path d="M1758 1054l20 20m-20 0l20-20" stroke="#000" stroke-width="2" fill="none"/><path d="M1508 1021.5v30.5a12 12 0 0 0 12 12h205.2" stroke="#333" fill="none"/><path d="M1508.48 1021.5h-.95v-.5h.95z" stroke="#333" stroke-width=".05" fill="#333"/><path d="M1739.97 1064l-14.26 4.63v-9.27z" stroke="#333" fill="#333"/><path d="M1618 1079.5a8 8 0 0 1 8-8h81.7a8 8 0 0 1 8 8v25.94a8 8 0 0 1-8 8H1626a8 8 0 0 1-8-8z" fill="none"/><use xlink:href="#V" transform="matrix(1,0,0,1,1623.007511515902,1076.4921875) translate(0 11.653515625)"/><use xlink:href="#W" transform="matrix(1,0,0,1,1623.007511515902,1076.4921875) translate(31.734375 11.653515625)"/><use xlink:href="#X" transform="matrix(1,0,0,1,1623.007511515902,1076.4921875) translate(0 29.076953125)"/><path d="M1888.67 1076.5a5 5 0 0 1 5-5h210a5 5 0 0 1 5 5v110a5 5 0 0 1-5 5h-210a5 5 0 0 1-5-5z" stroke="#333" stroke-width="2" fill="#b8f5ed"/><use xlink:href="#Q" transform="matrix(1,0,0,1,1888.6740625,1071.4921875) translate(41.76671875 33.84375)"/><use xlink:href="#E" transform="matrix(1,0,0,1,1888.6740625,1071.4921875) translate(102.37609375000001 33.84375)"/><use xlink:href="#R" transform="matrix(1,0,0,1,1888.6740625,1071.4921875) translate(121.29894531250001 33.84375)"/><use xlink:href="#Y" transform="matrix(1,0,0,1,1888.6740625,1071.4921875) translate(156.9649609375 33.84375)"/><use xlink:href="#Z" transform="matrix(1,0,0,1,1888.6740625,1071.4921875) translate(13.439570312500004 55.623046875)"/><use xlink:href="#r" transform="matrix(1,0,0,1,1888.6740625,1071.4921875) translate(114.83019531250001 55.623046875)"/><use xlink:href="#u" transform="matrix(1,0,0,1,1888.6740625,1071.4921875) translate(141.4083203125 55.623046875)"/><use xlink:href="#aa" transform="matrix(1,0,0,1,1888.6740625,1071.4921875) translate(160.9376171875 55.623046875)"/><use xlink:href="#ab" transform="matrix(1,0,0,1,1888.6740625,1071.4921875) translate(10.372187500000004 77.40234375)"/><use xlink:href="#K" transform="matrix(1,0,0,1,1888.6740625,1071.4921875) translate(103.00011718750001 77.40234375)"/><use xlink:href="#x" transform="matrix(1,0,0,1,1888.6740625,1071.4921875) translate(129.1915234375 77.40234375)"/><use xlink:href="#ac" transform="matrix(1,0,0,1,1888.6740625,1071.4921875) translate(149.1075390625 77.40234375)"/><use xlink:href="#ad" transform="matrix(1,0,0,1,1888.6740625,1071.4921875) translate(69.22814453125001 99.181640625)"/><path d="M1768 1090.9v28.6a12 12 0 0 0 12 12h91.3" stroke="#333" fill="none"/><path d="M1768.48 1090.93h-.95v-1l.48.48.48-.46z" stroke="#333" stroke-width=".05" fill="#333"/><path d="M1886.06 1131.5l-14.27 4.63v-9.27z" stroke="#333" fill="#333"/><path d="M2245 1131.5l25-25 25 25-25 25z" stroke="#000" stroke-width="2" fill="#fff"/><path d="M2260 1121.5l20 20m-20 0l20-20" stroke="#000" stroke-width="2" fill="none"/><path d="M2110.17 1131.5h117.04" stroke="#333" fill="none"/><path d="M2110.2 1131.97h-.53v-.95h.52z" stroke="#333" stroke-width=".05" fill="#333"/><path d="M2241.97 1131.5l-14.26 4.63v-9.27z" stroke="#333" fill="#333"/><path d="M2171 1149.95a8 8 0 0 1 8-8h64.14a8 8 0 0 1 8 8v25.96a8 8 0 0 1-8 8H2179a8 8 0 0 1-8-8z" fill="none"/><use xlink:href="#V" transform="matrix(1,0,0,1,2176.010324015902,1146.9529687499999) translate(0 11.653515625)"/><use xlink:href="#ae" transform="matrix(1,0,0,1,2176.010324015902,1146.9529687499999) translate(31.734375 11.653515625)"/><use xlink:href="#X" transform="matrix(1,0,0,1,2176.010324015902,1146.9529687499999) translate(0 29.076953125)"/><path d="M2380 1146.95a5 5 0 0 1 5-5h210a5 5 0 0 1 5 5v110a5 5 0 0 1-5 5h-210a5 5 0 0 1-5-5z" stroke="#333" stroke-width="2" fill="#b8f5ed"/><use xlink:href="#af" transform="matrix(1,0,0,1,2380,1141.9529687499999) translate(70.47619140625001 66.65625)"/><use xlink:href="#ag" transform="matrix(1,0,0,1,2380,1141.9529687499999) translate(115.94201171875 66.65625)"/><path d="M2270 1158.4v31.55a12 12 0 0 0 12 12h80.62" stroke="#333" fill="none"/><path d="M2270 1157.9l.48-.47v1h-.95v-1z" stroke="#333" stroke-width=".05" fill="#333"/><path d="M2377.38 1201.95l-14.26 4.64v-9.28z" stroke="#333" fill="#333"/><path d="M2490 1140.45V953.3" stroke="#333" fill="none"/><path d="M2490.47 1140.95h-.94v-.5h.94z" stroke="#333" stroke-width=".05" fill="#333"/><path d="M2490 938.52l4.64 14.27h-9.28z" stroke="#333" fill="#333"/><path d="M2380 820.9a5 5 0 0 1 5-5h210a5 5 0 0 1 5 5v110a5 5 0 0 1-5 5h-210a5 5 0 0 1-5-5z" stroke="#333" stroke-width="2" fill="#b8f5ed"/><use xlink:href="#ah" transform="matrix(1,0,0,1,2380,815.9059374999997) translate(17.078242187500003 55.875)"/><use xlink:href="#ai" transform="matrix(1,0,0,1,2380,815.9059374999997) translate(88.33117187500001 55.875)"/><use xlink:href="#r" transform="matrix(1,0,0,1,2380,815.9059374999997) translate(70.15539062500001 77.654296875)"/><use xlink:href="#u" transform="matrix(1,0,0,1,2380,815.9059374999997) translate(96.733515625 77.654296875)"/><use xlink:href="#ag" transform="matrix(1,0,0,1,2380,815.9059374999997) translate(116.2628125 77.654296875)"/><path d="M1508 783.1a8.1 8.1 0 0 1 8.1-8.1h124.52" stroke="#333" fill="none"/><path d="M1508.48 784.06l-.47-.47-.47.46v-1h.95z" stroke="#333" stroke-width=".05" fill="#333"/><path d="M1655.4 775l-14.28 4.63v-9.26z" stroke="#333" fill="#333"/><path d="M1768 1037.1V852.37" stroke="#333" fill="none"/><path d="M1768.48 1038.06l-.47-.47-.47.46v-1h.95z" stroke="#333" stroke-width=".05" fill="#333"/><path d="M1768 837.62l4.64 14.26h-9.27z" stroke="#333" fill="#333"/><path d="M2270 1104.58V787a12 12 0 0 0-12-12h-362.6" stroke="#333" fill="none"/><path d="M2270.48 1105.55l-.47-.47-.47.47v-.98h.95z" stroke="#333" stroke-width=".05" fill="#333"/><path d="M1880.63 775l14.26-4.63v9.26z" stroke="#333" fill="#333"/><path d="M1658 720a5 5 0 0 1 5-5h210a5 5 0 0 1 5 5v110a5 5 0 0 1-5 5h-210a5 5 0 0 1-5-5z" stroke="#333" stroke-width="2" fill="#b8f5ed"/><g><use xlink:href="#aj" transform="matrix(1,0,0,1,1658.0075115159023,715) translate(12.723261718750004 55.875)"/><use xlink:href="#ak" transform="matrix(1,0,0,1,1658.0075115159023,715) translate(75.03771484375001 55.875)"/><use xlink:href="#al" transform="matrix(1,0,0,1,1658.0075115159023,715) translate(112.25939453125001 55.875)"/><use xlink:href="#am" transform="matrix(1,0,0,1,1658.0075115159023,715) translate(138.74962890625 55.875)"/><use xlink:href="#an" transform="matrix(1,0,0,1,1658.0075115159023,715) translate(163.80724609375 55.875)"/><use xlink:href="#ao" transform="matrix(1,0,0,1,1658.0075115159023,715) translate(47.06212890625 77.654296875)"/><use xlink:href="#u" transform="matrix(1,0,0,1,1658.0075115159023,715) translate(122.69201171875001 77.654296875)"/><use xlink:href="#s" transform="matrix(1,0,0,1,1658.0075115159023,715) translate(142.22130859375 77.654296875)"/></g><path d="M2411.97 525a5 5 0 0 1 5-5h146.06a5 5 0 0 1 5 5v82.17a5 5 0 0 1-5 5h-146.06a5 5 0 0 1-5-5z" stroke="#333" stroke-width="2" fill="#cfe4ff"/><path d="M2421.4 562.92h34.13V551.6s-3.32-5.67-10.04-7.48h-13.13c-6.27 1.93-11.1 8.3-11.1 8.3l.12 10.5z" stroke="#000" stroke-width="2" fill="#f4f6f7"/><path d="M2421.4 562.92h34.13V551.6s-3.32-5.67-10.04-7.48h-13.13c-6.27 1.93-11.1 8.3-11.1 8.3l.12 10.5zM2428.82 556.76v5.56M2448.55 556.88v5.8" stroke="#000" stroke-width="2" fill="none"/><path d="M2446.67 536.5c0-4.32-3.45-7.82-7.7-7.82-4.23 0-7.66 3.5-7.66 7.83 0 4.34 3.44 7.86 7.68 7.86s7.7-3.52 7.7-7.85z" stroke="#000" stroke-width="2" fill="#020202"/><path d="M2446.67 536.5c0-4.32-3.45-7.82-7.7-7.82-4.23 0-7.66 3.5-7.66 7.83 0 4.34 3.44 7.86 7.68 7.86s7.7-3.52 7.7-7.85z" stroke="#000" stroke-width="2" fill="none"/><path d="M2431.96 538.2s3.98-3.5 7.6-2.62c3.64.9 6.58-.98 6.58-.98.34 2.43.06 5.4-2.07 8.07 0 0 1.54 1.1 1.54 2.17 0 1.1.18 2.7-1.4 4.33-1.6 1.63-7.82 1.8-9.58 0-1.77-1.8-1.77-2.64-1.77-3.84 0-1.2.82-1.82 1.77-2.78-1.54-.85-3.55-3.44-2.66-4.35z" stroke="#000" stroke-width="2" fill="#f0eff0"/><path d="M2431.96 538.2s3.98-3.5 7.6-2.62c3.64.9 6.58-.98 6.58-.98.34 2.43.06 5.4-2.07 8.07 0 0 1.54 1.1 1.54 2.17 0 1.1.18 2.7-1.4 4.33-1.6 1.63-7.82 1.8-9.58 0-1.77-1.8-1.77-2.64-1.77-3.84 0-1.2.82-1.82 1.77-2.78-1.54-.85-3.55-3.44-2.66-4.35z" stroke="#000" stroke-width="2" fill="none"/><g><use xlink:href="#ap" transform="matrix(1,0,0,1,2411.9671039481536,520) translate(65.33989583333333 42.536197916666666)"/><use xlink:href="#aq" transform="matrix(1,0,0,1,2411.9671039481536,520) translate(125.37817708333333 42.536197916666666)"/><use xlink:href="#ar" transform="matrix(1,0,0,1,2411.9671039481536,520) translate(77.46541666666667 62.54088541666667)"/></g><path d="M2569.53 566.1h34.1" stroke="#333" fill="none"/><path d="M2569.55 566.56h-.52v-.95h.52z" stroke="#333" stroke-width=".05" fill="#333"/><path d="M2618.38 566.1l-14.26 4.62v-9.27z" stroke="#333" fill="#333"/><path d="M1768 713.5V608.9" stroke="#333" fill="none"/><path d="M1768.48 714h-.95v-.5h.95z" stroke="#333" stroke-width=".05" fill="#333"/><path d="M1768 594.12l4.64 14.27h-9.27z" stroke="#333" fill="#333"/><path d="M1743 566.1l25-25 25 25-25 25z" stroke="#000" stroke-width="2" fill="#fff"/><path d="M1758 556.1l20 20m-20 0l20-20" stroke="#000" stroke-width="2" fill="none"/><path d="M381 566.1h81.62" stroke="#333" fill="none"/><path d="M381 566.56h-.54l.04-.46-.02-.5h.53z" stroke="#333" stroke-width=".05" fill="#333"/><path d="M477.38 566.1l-14.26 4.62v-9.27z" stroke="#333" fill="#333"/><path d="M558.03 613.67V798a12 12 0 0 0 12 12h32.6" stroke="#333" fill="none"/><path d="M558.5 613.7h-.94v-.53h.95z" stroke="#333" stroke-width=".05" fill="#333"/><path d="M617.38 810l-14.26 4.63v-9.26z" stroke="#333" fill="#333"/><path d="M1741.1 566.1H653.44" stroke="#333" fill="none"/><path d="M1741.6 566.1l.47.46h-1v-.95h1z" stroke="#333" stroke-width=".05" fill="#333"/><path d="M638.68 566.1l14.27-4.65v9.27z" stroke="#333" fill="#333"/><path d="M1512.4 780.5a8 8 0 0 1 8-8h10.24a8 8 0 0 1 8 8V789a8 8 0 0 1-8 8h-10.25a8 8 0 0 1-8-8z" fill="none"/><g><use xlink:href="#as" transform="matrix(1,0,0,1,1517.392042765902,777.48609375) translate(0.3818359375 11.865234375)"/></g><path d="M1512.4 831.98a8 8 0 0 1 8-8h4.6a8 8 0 0 1 8 8v8.53a8 8 0 0 1-8 8h-4.6a8 8 0 0 1-8-8z" fill="none"/><g><use xlink:href="#at" transform="matrix(1,0,0,1,1517.392042765902,828.97828125) translate(0.197265625 11.865234375)"/></g><path d="M1766.76 1022.47a8 8 0 0 1 8-8H1785a8 8 0 0 1 8 8v8.53a8 8 0 0 1-8 8h-10.24a8 8 0 0 1-8-8z" fill="none"/><g><use xlink:href="#as" transform="matrix(1,0,0,1,1771.761183390902,1019.4704687499999) translate(0.3818359375 11.865234375)"/></g><path d="M1775.23 1108a8 8 0 0 1 8-8h4.62a8 8 0 0 1 8 8v8.53a8 8 0 0 1-8 8h-4.62a8 8 0 0 1-8-8z" fill="none"/><g><use xlink:href="#at" transform="matrix(1,0,0,1,1780.2299333909023,1105) translate(0.197265625 11.865234375)"/></g><path d="M2280.76 1089.96a8 8 0 0 1 8-8H2299a8 8 0 0 1 8 8v8.53a8 8 0 0 1-8 8h-10.24a8 8 0 0 1-8-8z" fill="none"/><g><use xlink:href="#as" transform="matrix(1,0,0,1,2285.755558390902,1086.96265625) translate(0.3818359375 11.865234375)"/></g><path d="M2286.4 1164.5a8 8 0 0 1 8-8h4.6a8 8 0 0 1 8 8v8.52a8 8 0 0 1-8 8h-4.6a8 8 0 0 1-8-8z" fill="none"/><g><use xlink:href="#at" transform="matrix(1,0,0,1,2291.386417765902,1161.4921875) translate(0.197265625 11.865234375)"/></g><path d="M1790 581.36a8 8 0 0 1 8-8h82.67a8 8 0 0 1 8 8v25.95a8 8 0 0 1-8 8H1798a8 8 0 0 1-8-8z" fill="none"/><g><use xlink:href="#au" transform="matrix(1,0,0,1,1795,578.3558419103573) translate(0 11.653515625)"/><use xlink:href="#av" transform="matrix(1,0,0,1,1795,578.3558419103573) translate(40.86328125 11.653515625)"/><use xlink:href="#aw" transform="matrix(1,0,0,1,1795,578.3558419103573) translate(0 29.076953125)"/><use xlink:href="#ax" transform="matrix(1,0,0,1,1795,578.3558419103573) translate(24.298828125 29.076953125)"/><use xlink:href="#ay" transform="matrix(1,0,0,1,1795,578.3558419103573) translate(62.044921875 29.076953125)"/></g><path d="M1790 549.1a8 8 0 0 1 8-8h10.25a8 8 0 0 1 8 8v8.52a8 8 0 0 1-8 8H1798a8 8 0 0 1-8-8z" fill="none"/><g><use xlink:href="#as" transform="matrix(1,0,0,1,1795,546.0870137853572) translate(0.3818359375 11.865234375)"/></g><path d="M1719.7 549.1a8 8 0 0 1 8-8h4.6a8 8 0 0 1 8 8v8.52a8 8 0 0 1-8 8h-4.6a8 8 0 0 1-8-8z" fill="none"/><g><use xlink:href="#at" transform="matrix(1,0,0,1,1724.692265625,546.0870137853572) translate(0.197265625 11.865234375)"/></g><path d="M1794.92 566.1h599.66" stroke="#333" fill="none"/><path d="M1794.93 566.56h-.98l.47-.47-.47-.5h.98z" stroke="#333" stroke-width=".05" fill="#333"/><path d="M2409.35 566.1l-14.27 4.62v-9.27z" stroke="#333" fill="#333"/><path d="M2490 814.4V629.57" stroke="#333" fill="none"/><path d="M2490.47 814.9h-.94v-.5h.94z" stroke="#333" stroke-width=".05" fill="#333"/><path d="M2490 614.8l4.64 14.26h-9.28z" stroke="#333" fill="#333"/><defs><path d="M180 0v-1490h510c348 0 508 209 508 474 0 266-160 477-507 477H370V0H180zm190-706h312c236 0 327-133 327-310 0-176-91-307-329-307H370v617" id="az"/><path d="M158 0v-1118h174v172h12c41-113 157-188 290-188 26 0 70 2 91 3v181c-11-2-60-10-108-10-161 0-279 109-279 260V0H158" id="aA"/><path d="M613 24c-304 0-509-231-509-576 0-350 205-580 509-580 305 0 511 230 511 580 0 345-206 576-511 576zm0-161c226 0 329-195 329-415 0-222-103-419-329-419-223 0-326 196-326 419 0 220 103 415 326 415" id="aB"/><path d="M613 24c-304 0-509-231-509-576 0-350 205-580 509-580 216 0 392 114 453 309l-173 49c-33-115-133-197-280-197-223 0-326 196-326 419 0 220 103 415 326 415 150 0 252-85 285-206l172 49C1010-95 832 24 613 24" id="aC"/><path d="M628 24c-324 0-524-230-524-574 0-343 198-582 503-582 237 0 487 146 487 559v75H286c9 234 145 362 343 362 132 0 231-58 273-172l174 48C1024-91 857 24 628 24zM287-650h624c-17-190-120-322-304-322-192 0-309 151-320 322" id="aD"/><path d="M538 24C308 24 148-78 108-271l171-41c32 123 123 178 257 178 156 0 256-77 256-169 0-77-54-128-164-154l-186-44c-203-48-300-148-300-305 0-192 176-326 414-326 230 0 351 112 402 269l-163 42c-31-80-94-158-238-158-133 0-233 69-233 162 0 83 57 129 188 160l169 40c203 48 298 149 298 302 0 196-179 339-441 339" id="aE"/><g id="a"><use transform="matrix(0.01953125,0,0,0.01953125,0,0)" xlink:href="#az"/><use transform="matrix(0.01953125,0,0,0.01953125,25.546875,0)" xlink:href="#aA"/><use transform="matrix(0.01953125,0,0,0.01953125,39.94140625,0)" xlink:href="#aB"/><use transform="matrix(0.01953125,0,0,0.01953125,63.92578125,0)" xlink:href="#aC"/><use transform="matrix(0.01953125,0,0,0.01953125,86.77734375,0)" xlink:href="#aD"/><use transform="matrix(0.01953125,0,0,0.01953125,110.09765625,0)" xlink:href="#aE"/><use transform="matrix(0.01953125,0,0,0.01953125,131.2109375,0)" xlink:href="#aB"/></g><path d="M577 24c-279 0-473-224-473-580 0-354 195-576 474-576 218 0 287 134 324 193h14v-551h180V0H922v-173h-20C865-111 790 24 577 24zm27-161c203 0 314-172 314-421 0-247-108-413-314-413-212 0-317 181-317 413 0 235 108 421 317 421" id="aF"/><g id="b"><use transform="matrix(0.01953125,0,0,0.01953125,0,0)" xlink:href="#aF"/><use transform="matrix(0.01953125,0,0,0.01953125,24.4921875,0)" xlink:href="#aD"/></g><path d="M52 0l541-1490h220L1361 0h-200l-149-416H398L254 0H52zm404-582h497c-103-290-145-390-251-756-108 377-145 460-246 756" id="aG"/><path d="M611 442c-248 0-391-105-460-228l146-94c47 65 117 165 314 165 178 0 307-82 307-266v-224h-17C863-141 792-18 576-18c-268 0-472-195-472-546 0-346 197-568 476-568 216 0 288 133 326 193h17v-179h175V29c0 289-215 413-487 413zm-5-620c203 0 314-146 314-390 0-237-108-403-314-403-213 0-319 180-319 403 0 230 109 390 319 390" id="aH"/><path d="M338-670V0H158v-1118h173l1 207c72-158 192-221 342-221 226 0 378 139 378 422V0H872v-695c0-172-96-275-252-275-161 0-282 109-282 300" id="aI"/><path d="M471 26C259 26 90-98 90-318c0-256 228-303 435-329 202-27 287-16 287-108 0-139-79-219-234-219-161 0-248 86-283 164l-173-57c86-203 278-265 451-265 150 0 419 46 419 395V0H815v-152h-12C765-73 660 26 471 26zm31-159c199 0 310-134 310-271v-155c-30 35-226 55-295 64-131 17-246 59-246 186 0 116 97 176 231 176" id="aJ"/><g id="c"><use transform="matrix(0.01953125,0,0,0.01953125,0,0)" xlink:href="#aG"/><use transform="matrix(0.01953125,0,0,0.01953125,27.59765625,0)" xlink:href="#aH"/><use transform="matrix(0.01953125,0,0,0.01953125,52.12890625,0)" xlink:href="#aD"/><use transform="matrix(0.01953125,0,0,0.01953125,75.44921875,0)" xlink:href="#aI"/><use transform="matrix(0.01953125,0,0,0.01953125,99.08203125,0)" xlink:href="#aF"/><use transform="matrix(0.01953125,0,0,0.01953125,123.57421875,0)" xlink:href="#aJ"/><use transform="matrix(0.01953125,0,0,0.01953125,146.03515625,0)" xlink:href="#aA"/></g><path d="M783 20c-382 0-661-292-661-764 0-473 279-766 661-766 302 0 548 182 601 489h-190c-42-204-217-313-411-313-268 0-476 208-476 590 0 381 209 588 476 588 195 0 369-110 411-313h190c-52 303-296 489-601 489" id="aK"/><path d="M158 0v-1118h180V0H158zm91-1301c-68 0-125-53-125-119s57-119 125-119c69 0 126 53 126 119s-57 119-126 119" id="aL"/><path d="M598-1118v154H368v674c0 100 37 144 132 144 23 0 62-6 92-12L629-6c-37 13-88 20-134 20-193 0-307-107-307-290v-688H20v-154h168v-266h180v266h230" id="aM"/><g id="d"><use transform="matrix(0.01953125,0,0,0.01953125,0,0)" xlink:href="#aK"/><use transform="matrix(0.01953125,0,0,0.01953125,29.21875,0)" xlink:href="#aL"/><use transform="matrix(0.01953125,0,0,0.01953125,38.90625,0)" xlink:href="#aM"/><use transform="matrix(0.01953125,0,0,0.01953125,52.1875,0)" xlink:href="#aJ"/></g><g id="e"><use transform="matrix(0.01953125,0,0,0.01953125,0,0)" xlink:href="#az"/><use transform="matrix(0.01953125,0,0,0.01953125,25.33203125,0)" xlink:href="#aB"/><use transform="matrix(0.01953125,0,0,0.01953125,49.31640625,0)" xlink:href="#aA"/></g><path d="M537 14c-226 0-379-139-379-422v-710h180v695c0 172 97 275 253 275 160 0 281-109 281-300v-670h181V0H879v-209C806-46 684 14 537 14" id="aN"/><g id="f"><use transform="matrix(0.01953125,0,0,0.01953125,0,0)" xlink:href="#aN"/><use transform="matrix(0.01953125,0,0,0.01953125,23.65234375,0)" xlink:href="#aI"/></g><g id="g"><use transform="matrix(0.01953125,0,0,0.01953125,0,0)" xlink:href="#az"/><use transform="matrix(0.01953125,0,0,0.01953125,25.546875,0)" xlink:href="#aJ"/><use transform="matrix(0.01953125,0,0,0.01953125,48.0078125,0)" xlink:href="#aC"/><use transform="matrix(0.01953125,0,0,0.01953125,70.859375,0)" xlink:href="#aL"/><use transform="matrix(0.01953125,0,0,0.01953125,80.546875,0)" xlink:href="#aD"/><use transform="matrix(0.01953125,0,0,0.01953125,103.8671875,0)" xlink:href="#aI"/><use transform="matrix(0.01953125,0,0,0.01953125,127.5,0)" xlink:href="#aM"/><use transform="matrix(0.01953125,0,0,0.01953125,140.1953125,0)" xlink:href="#aD"/></g><path fill="#333" d="M524-1490L277 0H87l247-1490h190" id="aO"/><path fill="#333" d="M356-664L245 0H65l186-1118h173l-32 197c96-152 219-211 366-211 232 0 366 145 319 428L960 0H779l117-701c29-174-48-269-198-269-165 0-310 115-342 306" id="aP"/><path fill="#333" d="M66 0l185-1118h180L246 0H66zm307-1301c-71 0-117-55-106-119s74-119 145-119c65 0 117 50 106 118s-78 120-145 120" id="aQ"/><path fill="#333" d="M528 24C258 24 94-156 94-433c0-354 228-699 603-699 222 0 381 120 410 314l-176 39c-14-114-95-192-238-192-272 0-419 288-419 536 0 167 76 298 258 298 155 0 277-90 329-211l166 58C935-93 745 24 528 24" id="aR"/><path fill="#333" d="M528 24C258 24 94-156 94-433c0-355 229-699 603-699 270 0 436 178 436 458 0 359-234 698-605 698zm4-161c275 0 420-287 420-533 0-170-77-301-260-301-271 0-418 288-418 536 0 168 77 298 258 298" id="aS"/><g id="h"><use transform="matrix(0.008072916666666667,0,0,0.008072916666666667,0,0)" xlink:href="#aO"/><use transform="matrix(0.008072916666666667,0,0,0.008072916666666667,4.440104166666667,0)" xlink:href="#aP"/><use transform="matrix(0.008072916666666667,0,0,0.008072916666666667,14.216406250000002,0)" xlink:href="#aQ"/><use transform="matrix(0.008072916666666667,0,0,0.008072916666666667,18.228645833333335,0)" xlink:href="#aR"/><use transform="matrix(0.008072916666666667,0,0,0.008072916666666667,27.68203125,0)" xlink:href="#aQ"/><use transform="matrix(0.008072916666666667,0,0,0.008072916666666667,31.694270833333334,0)" xlink:href="#aS"/></g><path d="M657 26c-323 0-524-166-541-416h195c15 169 171 246 346 246 202 0 356-106 356-265 5-203-294-238-475-293-239-73-380-191-380-389 0-252 224-419 512-419 294 0 499 171 508 396H992c-17-145-151-228-328-228-193 0-321 102-321 242 0 156 175 211 284 241l149 41c160 44 422 134 422 412 0 244-197 432-541 432" id="aT"/><path d="M338-1490V0H158v-1490h180" id="aU"/><g id="i"><use transform="matrix(0.008072916666666667,0,0,0.008072916666666667,0,0)" xlink:href="#aT"/><use transform="matrix(0.008072916666666667,0,0,0.008072916666666667,10.607812500000001,0)" xlink:href="#aB"/><use transform="matrix(0.008072916666666667,0,0,0.008072916666666667,20.52135416666667,0)" xlink:href="#aU"/><use transform="matrix(0.008072916666666667,0,0,0.008072916666666667,24.525520833333335,0)" xlink:href="#aL"/><use transform="matrix(0.008072916666666667,0,0,0.008072916666666667,28.5296875,0)" xlink:href="#aC"/><use transform="matrix(0.008072916666666667,0,0,0.008072916666666667,37.975,0)" xlink:href="#aL"/><use transform="matrix(0.008072916666666667,0,0,0.008072916666666667,41.97916666666667,0)" xlink:href="#aM"/><use transform="matrix(0.008072916666666667,0,0,0.008072916666666667,47.46875,0)" xlink:href="#aJ"/></g><g id="j"><use transform="matrix(0.008072916666666667,0,0,0.008072916666666667,0,0)" xlink:href="#aN"/><use transform="matrix(0.008072916666666667,0,0,0.008072916666666667,9.776302083333334,0)" xlink:href="#aI"/><use transform="matrix(0.008072916666666667,0,0,0.008072916666666667,19.544531250000002,0)" xlink:href="#aJ"/></g><g id="k"><use transform="matrix(0.008072916666666667,0,0,0.008072916666666667,0,0)" xlink:href="#aK"/><use transform="matrix(0.008072916666666667,0,0,0.008072916666666667,12.077083333333334,0)" xlink:href="#aL"/><use transform="matrix(0.008072916666666667,0,0,0.008072916666666667,16.08125,0)" xlink:href="#aM"/><use transform="matrix(0.008072916666666667,0,0,0.008072916666666667,21.570833333333336,0)" xlink:href="#aJ"/></g><path fill="#666" d="M180 0v-1490h901v168H370v510h643v168H370V0H180" id="aV"/><path fill="#666" d="M158 0v-1118h180V0H158zm91-1301c-68 0-125-53-125-119s57-119 125-119c69 0 126 53 126 119s-57 119-126 119" id="aW"/><path fill="#666" d="M338-670V0H158v-1118h173l1 207c72-158 192-221 342-221 226 0 378 139 378 422V0H872v-695c0-172-96-275-252-275-161 0-282 109-282 300" id="aX"/><g id="l"><use transform="matrix(0.0087890625,0,0,0.0087890625,0,0)" xlink:href="#aV"/><use transform="matrix(0.0087890625,0,0,0.0087890625,10.6259765625,0)" xlink:href="#aW"/><use transform="matrix(0.0087890625,0,0,0.0087890625,14.9853515625,0)" xlink:href="#aX"/></g><path d="M158 0v-1118h175l1 205c55-151 181-225 313-225 147 0 245 90 285 228 53-141 190-228 352-228 194 0 352 125 352 384V0h-181v-749c0-161-105-225-225-225-151 0-243 103-243 244V0H807v-767c0-124-93-207-219-207-131 0-250 92-250 270V0H158" id="aY"/><g id="m"><use transform="matrix(0.01953125,0,0,0.01953125,0,0)" xlink:href="#aT"/><use transform="matrix(0.01953125,0,0,0.01953125,25.6640625,0)" xlink:href="#aL"/><use transform="matrix(0.01953125,0,0,0.01953125,35.3515625,0)" xlink:href="#aE"/><use transform="matrix(0.01953125,0,0,0.01953125,56.46484375,0)" xlink:href="#aM"/><use transform="matrix(0.01953125,0,0,0.01953125,69.16015625,0)" xlink:href="#aD"/><use transform="matrix(0.01953125,0,0,0.01953125,92.48046875,0)" xlink:href="#aY"/><use transform="matrix(0.01953125,0,0,0.01953125,127.51953125,0)" xlink:href="#aJ"/></g><g id="n"><use transform="matrix(0.01953125,0,0,0.01953125,0,0)" xlink:href="#az"/><use transform="matrix(0.01953125,0,0,0.01953125,25.546875,0)" xlink:href="#aJ"/><use transform="matrix(0.01953125,0,0,0.01953125,48.0078125,0)" xlink:href="#aC"/><use transform="matrix(0.01953125,0,0,0.01953125,70.859375,0)" xlink:href="#aL"/><use transform="matrix(0.01953125,0,0,0.01953125,80.546875,0)" xlink:href="#aD"/><use transform="matrix(0.01953125,0,0,0.01953125,103.8671875,0)" xlink:href="#aI"/><use transform="matrix(0.01953125,0,0,0.01953125,127.5,0)" xlink:href="#aM"/><use transform="matrix(0.01953125,0,0,0.01953125,140.1953125,0)" xlink:href="#aD"/></g><path d="M180 0v-1490h510c348 0 508 194 508 460 0 198-88 351-276 417L1256 0h-220L726-579c-117 2-238 0-356 1V0H180zm190-747h312c235 0 327-108 327-283 0-177-92-293-329-293H370v576" id="aZ"/><path d="M677 24c-213 0-288-135-325-197h-20V0H158v-1490h180v551h14c37-59 106-193 324-193 279 0 474 222 474 576 0 356-194 580-473 580zm-27-161c209 0 317-186 317-421 0-232-105-413-317-413-206 0-314 166-314 413 0 249 111 421 314 421" id="ba"/><g id="o"><use transform="matrix(0.0087890625,0,0,0.0087890625,0,0)" xlink:href="#aZ"/><use transform="matrix(0.0087890625,0,0,0.0087890625,11.3203125,0)" xlink:href="#aD"/><use transform="matrix(0.0087890625,0,0,0.0087890625,21.814453125,0)" xlink:href="#aC"/><use transform="matrix(0.0087890625,0,0,0.0087890625,32.09765625,0)" xlink:href="#aL"/><use transform="matrix(0.0087890625,0,0,0.0087890625,36.45703125,0)" xlink:href="#ba"/><use transform="matrix(0.0087890625,0,0,0.0087890625,47.478515625,0)" xlink:href="#aD"/></g><g id="p"><use transform="matrix(0.0087890625,0,0,0.0087890625,0,0)" xlink:href="#aU"/><use transform="matrix(0.0087890625,0,0,0.0087890625,4.359375,0)" xlink:href="#aJ"/></g><g id="q"><use transform="matrix(0.0087890625,0,0,0.0087890625,0,0)" xlink:href="#aE"/><use transform="matrix(0.0087890625,0,0,0.0087890625,9.5009765625,0)" xlink:href="#aB"/><use transform="matrix(0.0087890625,0,0,0.0087890625,20.2939453125,0)" xlink:href="#aU"/><use transform="matrix(0.0087890625,0,0,0.0087890625,24.6533203125,0)" xlink:href="#aL"/><use transform="matrix(0.0087890625,0,0,0.0087890625,29.0126953125,0)" xlink:href="#aC"/><use transform="matrix(0.0087890625,0,0,0.0087890625,39.2958984375,0)" xlink:href="#aL"/><use transform="matrix(0.0087890625,0,0,0.0087890625,43.6552734375,0)" xlink:href="#aM"/><use transform="matrix(0.0087890625,0,0,0.0087890625,49.5439453125,0)" xlink:href="#aN"/><use transform="matrix(0.0087890625,0,0,0.0087890625,60.1875,0)" xlink:href="#aF"/></g><g id="r"><use transform="matrix(0.0087890625,0,0,0.0087890625,0,0)" xlink:href="#aF"/><use transform="matrix(0.0087890625,0,0,0.0087890625,11.021484375,0)" xlink:href="#aD"/></g><g id="s"><use transform="matrix(0.0087890625,0,0,0.0087890625,0,0)" xlink:href="#aC"/><use transform="matrix(0.0087890625,0,0,0.0087890625,10.283203125,0)" xlink:href="#aL"/><use transform="matrix(0.0087890625,0,0,0.0087890625,14.642578125,0)" xlink:href="#aM"/><use transform="matrix(0.0087890625,0,0,0.0087890625,20.619140625,0)" xlink:href="#aJ"/></g><path d="M370-1490V0H180v-1490h190" id="bb"/><path d="M678-1118v154H420V0H240v-964H20v-154h220v-149c0-194 155-293 318-293 85 0 141 18 168 30l-50 154c-19-6-47-17-97-17-111 0-159 58-159 166v109h258" id="bc"/><g id="t"><use transform="matrix(0.0087890625,0,0,0.0087890625,0,0)" xlink:href="#bb"/><use transform="matrix(0.0087890625,0,0,0.0087890625,4.833984375,0)" xlink:href="#aF"/><use transform="matrix(0.0087890625,0,0,0.0087890625,15.85546875,0)" xlink:href="#aD"/><use transform="matrix(0.0087890625,0,0,0.0087890625,26.349609375,0)" xlink:href="#aI"/><use transform="matrix(0.0087890625,0,0,0.0087890625,36.984375,0)" xlink:href="#aM"/><use transform="matrix(0.0087890625,0,0,0.0087890625,42.873046875,0)" xlink:href="#aL"/><use transform="matrix(0.0087890625,0,0,0.0087890625,47.232421875,0)" xlink:href="#bc"/><use transform="matrix(0.0087890625,0,0,0.0087890625,53.89453125,0)" xlink:href="#aL"/><use transform="matrix(0.0087890625,0,0,0.0087890625,58.25390625,0)" xlink:href="#aC"/><use transform="matrix(0.0087890625,0,0,0.0087890625,68.712890625,0)" xlink:href="#aJ"/></g><g id="u"><use transform="matrix(0.0087890625,0,0,0.0087890625,0,0)" xlink:href="#aU"/><use transform="matrix(0.0087890625,0,0,0.0087890625,4.359375,0)" xlink:href="#aJ"/></g><path d="M158 418v-1536h174v179h20c37-59 106-193 324-193 279 0 474 222 474 576 0 356-194 580-473 580-213 0-288-135-325-197h-14v591H158zm492-555c209 0 317-186 317-421 0-232-105-413-317-413-206 0-314 166-314 413 0 249 111 421 314 421" id="bd"/><path d="M338-670V0H158v-1118h173l1 207c72-158 192-221 342-221 226 0 378 139 378 422V0H872v-695c0-172-96-275-252-275-161 0-282 109-282 300zm398-643c-99 0-192-83-243-83-35 0-51 40-53 79H314c4-120 55-208 162-208 104 0 174 85 241 85 33 0 49-23 56-81h123c-4 126-62 208-160 208" id="be"/><g id="v"><use transform="matrix(0.0087890625,0,0,0.0087890625,0,0)" xlink:href="#aK"/><use transform="matrix(0.0087890625,0,0,0.0087890625,13.1484375,0)" xlink:href="#aJ"/><use transform="matrix(0.0087890625,0,0,0.0087890625,23.255859375,0)" xlink:href="#aY"/><use transform="matrix(0.0087890625,0,0,0.0087890625,39.0234375,0)" xlink:href="#bd"/><use transform="matrix(0.0087890625,0,0,0.0087890625,50.220703125,0)" xlink:href="#aJ"/><use transform="matrix(0.0087890625,0,0,0.0087890625,60.328125,0)" xlink:href="#be"/><use transform="matrix(0.0087890625,0,0,0.0087890625,70.962890625,0)" xlink:href="#aJ"/></g><path d="M140 405l46-156c120 36 205 19 263-150l32-93L54-1118h197c107 313 237 620 324 950 87-331 219-637 326-950h196L606 167c-68 178-176 259-334 259-64 0-113-12-132-21" id="bf"/><use transform="matrix(0.0087890625,0,0,0.0087890625,0,0)" xlink:href="#bf" id="w"/><g id="x"><use transform="matrix(0.0087890625,0,0,0.0087890625,0,0)" xlink:href="#aD"/><use transform="matrix(0.0087890625,0,0,0.0087890625,10.494140625,0)" xlink:href="#aU"/></g><g id="y"><use transform="matrix(0.0087890625,0,0,0.0087890625,0,0)" xlink:href="#aK"/><use transform="matrix(0.0087890625,0,0,0.0087890625,13.1484375,0)" xlink:href="#aD"/><use transform="matrix(0.0087890625,0,0,0.0087890625,23.642578125,0)" xlink:href="#aI"/><use transform="matrix(0.0087890625,0,0,0.0087890625,34.27734375,0)" xlink:href="#aM"/><use transform="matrix(0.0087890625,0,0,0.0087890625,40.166015625,0)" xlink:href="#aA"/><use transform="matrix(0.0087890625,0,0,0.0087890625,46.6435546875,0)" xlink:href="#aB"/></g><g id="z"><use transform="matrix(0.0087890625,0,0,0.0087890625,0,0)" xlink:href="#aT"/><use transform="matrix(0.0087890625,0,0,0.0087890625,11.548828125,0)" xlink:href="#aJ"/><use transform="matrix(0.0087890625,0,0,0.0087890625,21.65625,0)" xlink:href="#aU"/><use transform="matrix(0.0087890625,0,0,0.0087890625,26.015625,0)" xlink:href="#aN"/><use transform="matrix(0.0087890625,0,0,0.0087890625,36.6591796875,0)" xlink:href="#aF"/></g><g id="A"><use transform="matrix(0.0087890625,0,0,0.0087890625,0,0)" xlink:href="#aJ"/><use transform="matrix(0.0087890625,0,0,0.0087890625,10.107421875,0)" xlink:href="#aE"/><use transform="matrix(0.0087890625,0,0,0.0087890625,19.6083984375,0)" xlink:href="#aB"/><use transform="matrix(0.0087890625,0,0,0.0087890625,30.4013671875,0)" xlink:href="#aC"/><use transform="matrix(0.0087890625,0,0,0.0087890625,40.6845703125,0)" xlink:href="#aL"/><use transform="matrix(0.0087890625,0,0,0.0087890625,45.0439453125,0)" xlink:href="#aJ"/><use transform="matrix(0.0087890625,0,0,0.0087890625,55.1513671875,0)" xlink:href="#aF"/><use transform="matrix(0.0087890625,0,0,0.0087890625,66.1728515625,0)" xlink:href="#aB"/></g><use transform="matrix(0.0087890625,0,0,0.0087890625,0,0)" xlink:href="#aJ" id="B"/><g id="C"><use transform="matrix(0.0087890625,0,0,0.0087890625,0,0)" xlink:href="#aE"/><use transform="matrix(0.0087890625,0,0,0.0087890625,9.5009765625,0)" xlink:href="#aB"/><use transform="matrix(0.0087890625,0,0,0.0087890625,20.2939453125,0)" xlink:href="#aU"/><use transform="matrix(0.0087890625,0,0,0.0087890625,24.6533203125,0)" xlink:href="#aL"/><use transform="matrix(0.0087890625,0,0,0.0087890625,29.0126953125,0)" xlink:href="#aC"/><use transform="matrix(0.0087890625,0,0,0.0087890625,39.2958984375,0)" xlink:href="#aL"/><use transform="matrix(0.0087890625,0,0,0.0087890625,43.6552734375,0)" xlink:href="#aM"/><use transform="matrix(0.0087890625,0,0,0.0087890625,49.5439453125,0)" xlink:href="#aN"/><use transform="matrix(0.0087890625,0,0,0.0087890625,60.1875,0)" xlink:href="#aF"/></g><path d="M645 0H180v-1490h484c435 0 692 280 692 742 0 466-257 748-711 748zM370-168h263c363 0 539-218 539-580 0-358-176-574-521-574H370v1154" id="bg"/><g id="D"><use transform="matrix(0.0087890625,0,0,0.0087890625,0,0)" xlink:href="#bg"/><use transform="matrix(0.0087890625,0,0,0.0087890625,12.990234375,0)" xlink:href="#aD"/><use transform="matrix(0.0087890625,0,0,0.0087890625,23.484375,0)" xlink:href="#aM"/><use transform="matrix(0.0087890625,0,0,0.0087890625,29.197265625,0)" xlink:href="#aD"/><use transform="matrix(0.0087890625,0,0,0.0087890625,39.69140625,0)" xlink:href="#aA"/><use transform="matrix(0.0087890625,0,0,0.0087890625,46.7490234375,0)" xlink:href="#aY"/><use transform="matrix(0.0087890625,0,0,0.0087890625,62.5166015625,0)" xlink:href="#aL"/><use transform="matrix(0.0087890625,0,0,0.0087890625,66.8759765625,0)" xlink:href="#aI"/><use transform="matrix(0.0087890625,0,0,0.0087890625,77.5107421875,0)" xlink:href="#aJ"/></g><g id="E"><use transform="matrix(0.0087890625,0,0,0.0087890625,0,0)" xlink:href="#aE"/><use transform="matrix(0.0087890625,0,0,0.0087890625,9.5009765625,0)" xlink:href="#aL"/></g><g id="F"><use transform="matrix(0.0087890625,0,0,0.0087890625,0,0)" xlink:href="#aK"/><use transform="matrix(0.0087890625,0,0,0.0087890625,13.1484375,0)" xlink:href="#aD"/><use transform="matrix(0.0087890625,0,0,0.0087890625,23.642578125,0)" xlink:href="#aI"/><use transform="matrix(0.0087890625,0,0,0.0087890625,34.27734375,0)" xlink:href="#aM"/><use transform="matrix(0.0087890625,0,0,0.0087890625,40.166015625,0)" xlink:href="#aA"/><use transform="matrix(0.0087890625,0,0,0.0087890625,46.6435546875,0)" xlink:href="#aB"/></g><path d="M481 0L54-1118h197c107 314 236 620 325 951 87-331 217-637 324-951h197L670 0H481" id="bh"/><path d="M613 24c-304 0-509-231-509-576 0-350 205-580 509-580 305 0 511 230 511 580 0 345-206 576-511 576zm0-161c226 0 329-195 329-415 0-222-103-419-329-419-223 0-326 196-326 419 0 220 103 415 326 415zm-79-1127l140-294h201l-194 294H534" id="bi"/><g id="G"><use transform="matrix(0.0087890625,0,0,0.0087890625,0,0)" xlink:href="#bh"/><use transform="matrix(0.0087890625,0,0,0.0087890625,10.0283203125,0)" xlink:href="#aJ"/><use transform="matrix(0.0087890625,0,0,0.0087890625,20.1357421875,0)" xlink:href="#aC"/><use transform="matrix(0.0087890625,0,0,0.0087890625,30.4189453125,0)" xlink:href="#aN"/><use transform="matrix(0.0087890625,0,0,0.0087890625,41.0625,0)" xlink:href="#aI"/><use transform="matrix(0.0087890625,0,0,0.0087890625,51.697265625,0)" xlink:href="#aJ"/><use transform="matrix(0.0087890625,0,0,0.0087890625,61.8046875,0)" xlink:href="#aC"/><use transform="matrix(0.0087890625,0,0,0.0087890625,72.087890625,0)" xlink:href="#aL"/><use transform="matrix(0.0087890625,0,0,0.0087890625,76.447265625,0)" xlink:href="#bi"/><use transform="matrix(0.0087890625,0,0,0.0087890625,87.240234375,0)" xlink:href="#aI"/></g><g id="H"><use transform="matrix(0.0087890625,0,0,0.0087890625,0,0)" xlink:href="#aJ"/><use transform="matrix(0.0087890625,0,0,0.0087890625,10.107421875,0)" xlink:href="#aE"/><use transform="matrix(0.0087890625,0,0,0.0087890625,19.6083984375,0)" xlink:href="#aB"/><use transform="matrix(0.0087890625,0,0,0.0087890625,30.4013671875,0)" xlink:href="#aC"/><use transform="matrix(0.0087890625,0,0,0.0087890625,40.6845703125,0)" xlink:href="#aL"/><use transform="matrix(0.0087890625,0,0,0.0087890625,45.0439453125,0)" xlink:href="#aJ"/><use transform="matrix(0.0087890625,0,0,0.0087890625,55.1513671875,0)" xlink:href="#aF"/><use transform="matrix(0.0087890625,0,0,0.0087890625,66.1728515625,0)" xlink:href="#aB"/></g><path d="M471 26C259 26 90-98 90-318c0-256 228-303 435-329 202-27 287-16 287-108 0-139-79-219-234-219-161 0-248 86-283 164l-173-57c86-203 278-265 451-265 150 0 419 46 419 395V0H815v-152h-12C765-73 660 26 471 26zm31-159c199 0 310-134 310-271v-155c-30 35-226 55-295 64-131 17-246 59-246 186 0 116 97 176 231 176zm-23-1131l140-294h201l-194 294H479" id="bj"/><g id="I"><use transform="matrix(0.0087890625,0,0,0.0087890625,0,0)" xlink:href="#aD"/><use transform="matrix(0.0087890625,0,0,0.0087890625,10.494140625,0)" xlink:href="#aE"/><use transform="matrix(0.0087890625,0,0,0.0087890625,19.9951171875,0)" xlink:href="#aM"/><use transform="matrix(0.0087890625,0,0,0.0087890625,25.9716796875,0)" xlink:href="#bj"/></g><g id="J"><use transform="matrix(0.0087890625,0,0,0.0087890625,0,0)" xlink:href="#aJ"/><use transform="matrix(0.0087890625,0,0,0.0087890625,10.107421875,0)" xlink:href="#ba"/><use transform="matrix(0.0087890625,0,0,0.0087890625,21.12890625,0)" xlink:href="#aL"/><use transform="matrix(0.0087890625,0,0,0.0087890625,25.48828125,0)" xlink:href="#aD"/><use transform="matrix(0.0087890625,0,0,0.0087890625,35.982421875,0)" xlink:href="#aA"/><use transform="matrix(0.0087890625,0,0,0.0087890625,43.0400390625,0)" xlink:href="#aM"/><use transform="matrix(0.0087890625,0,0,0.0087890625,48.7529296875,0)" xlink:href="#aB"/></g><g id="K"><use transform="matrix(0.0087890625,0,0,0.0087890625,0,0)" xlink:href="#aD"/><use transform="matrix(0.0087890625,0,0,0.0087890625,10.494140625,0)" xlink:href="#aI"/></g><g id="L"><use transform="matrix(0.0087890625,0,0,0.0087890625,0,0)" xlink:href="#aD"/><use transform="matrix(0.0087890625,0,0,0.0087890625,10.494140625,0)" xlink:href="#aU"/></g><path d="M338-670V0H158v-1490h180v566c73-149 190-208 336-208 226 0 379 139 379 422V0H872v-695c0-172-96-275-252-275-161 0-282 109-282 300" id="bk"/><g id="M"><use transform="matrix(0.0087890625,0,0,0.0087890625,0,0)" xlink:href="#bk"/><use transform="matrix(0.0087890625,0,0,0.0087890625,10.6435546875,0)" xlink:href="#aB"/><use transform="matrix(0.0087890625,0,0,0.0087890625,21.4365234375,0)" xlink:href="#aA"/><use transform="matrix(0.0087890625,0,0,0.0087890625,28.212890625,0)" xlink:href="#aJ"/><use transform="matrix(0.0087890625,0,0,0.0087890625,38.3203125,0)" xlink:href="#aA"/><use transform="matrix(0.0087890625,0,0,0.0087890625,45.3779296875,0)" xlink:href="#aL"/><use transform="matrix(0.0087890625,0,0,0.0087890625,49.7373046875,0)" xlink:href="#aB"/></g><g id="N"><use transform="matrix(0.0087890625,0,0,0.0087890625,0,0)" xlink:href="#aE"/><use transform="matrix(0.0087890625,0,0,0.0087890625,9.5009765625,0)" xlink:href="#aD"/><use transform="matrix(0.0087890625,0,0,0.0087890625,19.9951171875,0)" xlink:href="#aU"/><use transform="matrix(0.0087890625,0,0,0.0087890625,24.3544921875,0)" xlink:href="#aD"/><use transform="matrix(0.0087890625,0,0,0.0087890625,34.8486328125,0)" xlink:href="#aC"/><use transform="matrix(0.0087890625,0,0,0.0087890625,45.1318359375,0)" xlink:href="#aC"/><use transform="matrix(0.0087890625,0,0,0.0087890625,55.4150390625,0)" xlink:href="#aL"/><use transform="matrix(0.0087890625,0,0,0.0087890625,59.7744140625,0)" xlink:href="#aB"/><use transform="matrix(0.0087890625,0,0,0.0087890625,70.5673828125,0)" xlink:href="#aI"/><use transform="matrix(0.0087890625,0,0,0.0087890625,81.2021484375,0)" xlink:href="#aJ"/><use transform="matrix(0.0087890625,0,0,0.0087890625,91.3095703125,0)" xlink:href="#aF"/><use transform="matrix(0.0087890625,0,0,0.0087890625,102.3310546875,0)" xlink:href="#aB"/></g><path d="M664-669c3 277-82 343-222 425-88 53-156 134-156 250 0 139 108 227 243 227 118 0 235-70 246-236h190c-10 251-200 395-436 395-259 0-427-165-427-393 0-161 74-273 203-352 132-80 180-132 178-316h181zm-93-462c75 0 135 60 135 134 0 75-60 135-135 135-74 0-134-60-134-135 0-74 60-134 134-134" id="bl"/><path d="M180 0v-1490h190v1322h690V0H180" id="bm"/><g id="O"><use transform="matrix(0.005859375,0,0,0.005859375,0,0)" xlink:href="#bl"/><use transform="matrix(0.005859375,0,0,0.005859375,6.134765625,0)" xlink:href="#bm"/><use transform="matrix(0.005859375,0,0,0.005859375,12.919921875,0)" xlink:href="#aB"/></g><path d="M383-449c-3-277 82-343 222-425 88-53 156-134 156-250 0-139-108-227-243-227-118 0-235 70-246 236H82c10-251 200-395 436-395 259 0 427 165 427 393 0 161-74 273-203 352-132 80-180 132-178 316H383zm93 462c-75 0-135-60-135-134 0-75 60-135 135-135 74 0 134 60 134 135 0 74-60 134-134 134" id="bn"/><g id="P"><use transform="matrix(0.005859375,0,0,0.005859375,0,0)" xlink:href="#aD"/><use transform="matrix(0.005859375,0,0,0.005859375,6.99609375,0)" xlink:href="#aE"/><use transform="matrix(0.005859375,0,0,0.005859375,13.330078125,0)" xlink:href="#aM"/><use transform="matrix(0.005859375,0,0,0.005859375,17.314453125,0)" xlink:href="#bj"/><use transform="matrix(0.005859375,0,0,0.005859375,24.052734375,0)" xlink:href="#bn"/></g><g id="Q"><use transform="matrix(0.0087890625,0,0,0.0087890625,0,0)" xlink:href="#aZ"/><use transform="matrix(0.0087890625,0,0,0.0087890625,11.3203125,0)" xlink:href="#aD"/><use transform="matrix(0.0087890625,0,0,0.0087890625,21.462890625,0)" xlink:href="#bh"/><use transform="matrix(0.0087890625,0,0,0.0087890625,31.5791015625,0)" xlink:href="#aL"/><use transform="matrix(0.0087890625,0,0,0.0087890625,35.9384765625,0)" xlink:href="#aE"/><use transform="matrix(0.0087890625,0,0,0.0087890625,45.439453125,0)" xlink:href="#aJ"/></g><g id="R"><use transform="matrix(0.0087890625,0,0,0.0087890625,0,0)" xlink:href="#bk"/><use transform="matrix(0.0087890625,0,0,0.0087890625,10.6435546875,0)" xlink:href="#aJ"/><use transform="matrix(0.0087890625,0,0,0.0087890625,20.4873046875,0)" xlink:href="#bf"/></g><g id="S"><use transform="matrix(0.0087890625,0,0,0.0087890625,0,0)" xlink:href="#bh"/><use transform="matrix(0.0087890625,0,0,0.0087890625,10.0283203125,0)" xlink:href="#aJ"/><use transform="matrix(0.0087890625,0,0,0.0087890625,20.1357421875,0)" xlink:href="#aC"/><use transform="matrix(0.0087890625,0,0,0.0087890625,30.4189453125,0)" xlink:href="#aN"/><use transform="matrix(0.0087890625,0,0,0.0087890625,41.0625,0)" xlink:href="#aI"/><use transform="matrix(0.0087890625,0,0,0.0087890625,51.697265625,0)" xlink:href="#aJ"/><use transform="matrix(0.0087890625,0,0,0.0087890625,61.8046875,0)" xlink:href="#aE"/></g><g id="T"><use transform="matrix(0.0087890625,0,0,0.0087890625,0,0)" xlink:href="#aF"/><use transform="matrix(0.0087890625,0,0,0.0087890625,11.021484375,0)" xlink:href="#aL"/><use transform="matrix(0.0087890625,0,0,0.0087890625,15.380859375,0)" xlink:href="#aE"/><use transform="matrix(0.0087890625,0,0,0.0087890625,24.8818359375,0)" xlink:href="#bd"/><use transform="matrix(0.0087890625,0,0,0.0087890625,35.9033203125,0)" xlink:href="#aB"/><use transform="matrix(0.0087890625,0,0,0.0087890625,46.6962890625,0)" xlink:href="#aI"/><use transform="matrix(0.0087890625,0,0,0.0087890625,57.3310546875,0)" xlink:href="#aL"/><use transform="matrix(0.0087890625,0,0,0.0087890625,61.6904296875,0)" xlink:href="#ba"/><use transform="matrix(0.0087890625,0,0,0.0087890625,72.7119140625,0)" xlink:href="#aU"/><use transform="matrix(0.0087890625,0,0,0.0087890625,77.0712890625,0)" xlink:href="#aD"/><use transform="matrix(0.0087890625,0,0,0.0087890625,87.5654296875,0)" xlink:href="#aE"/></g><g id="U"><use transform="matrix(0.0087890625,0,0,0.0087890625,0,0)" xlink:href="#aL"/><use transform="matrix(0.0087890625,0,0,0.0087890625,4.359375,0)" xlink:href="#aI"/><use transform="matrix(0.0087890625,0,0,0.0087890625,14.73046875,0)" xlink:href="#bh"/><use transform="matrix(0.0087890625,0,0,0.0087890625,24.4951171875,0)" xlink:href="#aD"/><use transform="matrix(0.0087890625,0,0,0.0087890625,34.9892578125,0)" xlink:href="#aI"/><use transform="matrix(0.0087890625,0,0,0.0087890625,45.6240234375,0)" xlink:href="#aM"/><use transform="matrix(0.0087890625,0,0,0.0087890625,51.6005859375,0)" xlink:href="#aJ"/><use transform="matrix(0.0087890625,0,0,0.0087890625,61.7080078125,0)" xlink:href="#aA"/><use transform="matrix(0.0087890625,0,0,0.0087890625,68.765625,0)" xlink:href="#aL"/><use transform="matrix(0.0087890625,0,0,0.0087890625,73.125,0)" xlink:href="#aB"/></g><path d="M180 0v-1490h190v644h782v-644h190V0h-190v-678H370V0H180" id="bo"/><g id="V"><use transform="matrix(0.005859375,0,0,0.005859375,0,0)" xlink:href="#bl"/><use transform="matrix(0.005859375,0,0,0.005859375,6.134765625,0)" xlink:href="#bo"/><use transform="matrix(0.005859375,0,0,0.005859375,15.052734375,0)" xlink:href="#aJ"/><use transform="matrix(0.005859375,0,0,0.005859375,21.615234375,0)" xlink:href="#bf"/></g><g id="W"><use transform="matrix(0.005859375,0,0,0.005859375,0,0)" xlink:href="#aL"/><use transform="matrix(0.005859375,0,0,0.005859375,2.90625,0)" xlink:href="#aI"/><use transform="matrix(0.005859375,0,0,0.005859375,9.8203125,0)" xlink:href="#bh"/><use transform="matrix(0.005859375,0,0,0.005859375,16.330078125,0)" xlink:href="#aD"/><use transform="matrix(0.005859375,0,0,0.005859375,23.326171875,0)" xlink:href="#aI"/><use transform="matrix(0.005859375,0,0,0.005859375,30.416015625,0)" xlink:href="#aM"/><use transform="matrix(0.005859375,0,0,0.005859375,34.400390625,0)" xlink:href="#aJ"/><use transform="matrix(0.005859375,0,0,0.005859375,41.138671875,0)" xlink:href="#aA"/><use transform="matrix(0.005859375,0,0,0.005859375,45.84375,0)" xlink:href="#aL"/><use transform="matrix(0.005859375,0,0,0.005859375,48.75,0)" xlink:href="#aB"/></g><g id="X"><use transform="matrix(0.005859375,0,0,0.005859375,0,0)" xlink:href="#aF"/><use transform="matrix(0.005859375,0,0,0.005859375,7.34765625,0)" xlink:href="#aL"/><use transform="matrix(0.005859375,0,0,0.005859375,10.25390625,0)" xlink:href="#aE"/><use transform="matrix(0.005859375,0,0,0.005859375,16.587890625,0)" xlink:href="#bd"/><use transform="matrix(0.005859375,0,0,0.005859375,23.935546875,0)" xlink:href="#aB"/><use transform="matrix(0.005859375,0,0,0.005859375,31.130859375,0)" xlink:href="#aI"/><use transform="matrix(0.005859375,0,0,0.005859375,38.220703125,0)" xlink:href="#aL"/><use transform="matrix(0.005859375,0,0,0.005859375,41.126953125,0)" xlink:href="#ba"/><use transform="matrix(0.005859375,0,0,0.005859375,48.474609375,0)" xlink:href="#aU"/><use transform="matrix(0.005859375,0,0,0.005859375,51.380859375,0)" xlink:href="#aD"/><use transform="matrix(0.005859375,0,0,0.005859375,58.376953125,0)" xlink:href="#bn"/></g><g id="Y"><use transform="matrix(0.0087890625,0,0,0.0087890625,0,0)" xlink:href="#aN"/><use transform="matrix(0.0087890625,0,0,0.0087890625,10.6435546875,0)" xlink:href="#aI"/></g><g id="Z"><use transform="matrix(0.0087890625,0,0,0.0087890625,0,0)" xlink:href="#bc"/><use transform="matrix(0.0087890625,0,0,0.0087890625,6.662109375,0)" xlink:href="#aN"/><use transform="matrix(0.0087890625,0,0,0.0087890625,17.3056640625,0)" xlink:href="#aI"/><use transform="matrix(0.0087890625,0,0,0.0087890625,27.9404296875,0)" xlink:href="#aC"/><use transform="matrix(0.0087890625,0,0,0.0087890625,38.2236328125,0)" xlink:href="#aL"/><use transform="matrix(0.0087890625,0,0,0.0087890625,42.5830078125,0)" xlink:href="#aB"/><use transform="matrix(0.0087890625,0,0,0.0087890625,53.3759765625,0)" xlink:href="#aI"/><use transform="matrix(0.0087890625,0,0,0.0087890625,64.0107421875,0)" xlink:href="#aJ"/><use transform="matrix(0.0087890625,0,0,0.0087890625,74.1181640625,0)" xlink:href="#aA"/><use transform="matrix(0.0087890625,0,0,0.0087890625,81.17578125,0)" xlink:href="#aL"/><use transform="matrix(0.0087890625,0,0,0.0087890625,85.53515625,0)" xlink:href="#aB"/></g><g id="aa"><use transform="matrix(0.0087890625,0,0,0.0087890625,0,0)" xlink:href="#aE"/><use transform="matrix(0.0087890625,0,0,0.0087890625,9.5009765625,0)" xlink:href="#aJ"/><use transform="matrix(0.0087890625,0,0,0.0087890625,19.6083984375,0)" xlink:href="#aU"/><use transform="matrix(0.0087890625,0,0,0.0087890625,23.9677734375,0)" xlink:href="#aN"/><use transform="matrix(0.0087890625,0,0,0.0087890625,34.611328125,0)" xlink:href="#aF"/></g><g id="ab"><use transform="matrix(0.0087890625,0,0,0.0087890625,0,0)" xlink:href="#aF"/><use transform="matrix(0.0087890625,0,0,0.0087890625,11.021484375,0)" xlink:href="#aL"/><use transform="matrix(0.0087890625,0,0,0.0087890625,15.380859375,0)" xlink:href="#aE"/><use transform="matrix(0.0087890625,0,0,0.0087890625,24.8818359375,0)" xlink:href="#bd"/><use transform="matrix(0.0087890625,0,0,0.0087890625,35.9033203125,0)" xlink:href="#aB"/><use transform="matrix(0.0087890625,0,0,0.0087890625,46.6962890625,0)" xlink:href="#aI"/><use transform="matrix(0.0087890625,0,0,0.0087890625,57.3310546875,0)" xlink:href="#aL"/><use transform="matrix(0.0087890625,0,0,0.0087890625,61.6904296875,0)" xlink:href="#ba"/><use transform="matrix(0.0087890625,0,0,0.0087890625,72.7119140625,0)" xlink:href="#aU"/><use transform="matrix(0.0087890625,0,0,0.0087890625,77.0712890625,0)" xlink:href="#aD"/></g><g id="ac"><use transform="matrix(0.0087890625,0,0,0.0087890625,0,0)" xlink:href="#bk"/><use transform="matrix(0.0087890625,0,0,0.0087890625,10.6435546875,0)" xlink:href="#aB"/><use transform="matrix(0.0087890625,0,0,0.0087890625,21.4365234375,0)" xlink:href="#aA"/><use transform="matrix(0.0087890625,0,0,0.0087890625,28.212890625,0)" xlink:href="#aJ"/><use transform="matrix(0.0087890625,0,0,0.0087890625,38.3203125,0)" xlink:href="#aA"/><use transform="matrix(0.0087890625,0,0,0.0087890625,45.3779296875,0)" xlink:href="#aL"/><use transform="matrix(0.0087890625,0,0,0.0087890625,49.7373046875,0)" xlink:href="#aB"/></g><g id="ad"><use transform="matrix(0.0087890625,0,0,0.0087890625,0,0)" xlink:href="#aE"/><use transform="matrix(0.0087890625,0,0,0.0087890625,9.5009765625,0)" xlink:href="#aB"/><use transform="matrix(0.0087890625,0,0,0.0087890625,20.2939453125,0)" xlink:href="#aU"/><use transform="matrix(0.0087890625,0,0,0.0087890625,24.6533203125,0)" xlink:href="#aL"/><use transform="matrix(0.0087890625,0,0,0.0087890625,29.0126953125,0)" xlink:href="#aC"/><use transform="matrix(0.0087890625,0,0,0.0087890625,39.2958984375,0)" xlink:href="#aL"/><use transform="matrix(0.0087890625,0,0,0.0087890625,43.6552734375,0)" xlink:href="#aM"/><use transform="matrix(0.0087890625,0,0,0.0087890625,49.6318359375,0)" xlink:href="#aJ"/><use transform="matrix(0.0087890625,0,0,0.0087890625,59.7392578125,0)" xlink:href="#aF"/><use transform="matrix(0.0087890625,0,0,0.0087890625,70.7607421875,0)" xlink:href="#aB"/></g><g id="ae"><use transform="matrix(0.005859375,0,0,0.005859375,0,0)" xlink:href="#aJ"/><use transform="matrix(0.005859375,0,0,0.005859375,6.73828125,0)" xlink:href="#aU"/><use transform="matrix(0.005859375,0,0,0.005859375,9.64453125,0)" xlink:href="#aH"/><use transform="matrix(0.005859375,0,0,0.005859375,17.00390625,0)" xlink:href="#aN"/><use transform="matrix(0.005859375,0,0,0.005859375,24.099609375,0)" xlink:href="#aI"/><use transform="matrix(0.005859375,0,0,0.005859375,31.189453125,0)" xlink:href="#aB"/></g><g id="af"><use transform="matrix(0.0087890625,0,0,0.0087890625,0,0)" xlink:href="#aK"/><use transform="matrix(0.0087890625,0,0,0.0087890625,13.1484375,0)" xlink:href="#aA"/><use transform="matrix(0.0087890625,0,0,0.0087890625,19.6259765625,0)" xlink:href="#aD"/><use transform="matrix(0.0087890625,0,0,0.0087890625,30.2958984375,0)" xlink:href="#aJ"/></g><g id="ag"><use transform="matrix(0.0087890625,0,0,0.0087890625,0,0)" xlink:href="#aK"/><use transform="matrix(0.0087890625,0,0,0.0087890625,13.1484375,0)" xlink:href="#aL"/><use transform="matrix(0.0087890625,0,0,0.0087890625,17.5078125,0)" xlink:href="#aM"/><use transform="matrix(0.0087890625,0,0,0.0087890625,23.484375,0)" xlink:href="#aJ"/></g><path d="M180 0v-1490h224l606 953c40 63 108 177 176 312-27-437-7-821-13-1265h190V0h-226C860-448 622-778 356-1262c27 476 11 792 15 1262H180" id="bp"/><g id="ah"><use transform="matrix(0.0087890625,0,0,0.0087890625,0,0)" xlink:href="#bp"/><use transform="matrix(0.0087890625,0,0,0.0087890625,13.5615234375,0)" xlink:href="#aB"/><use transform="matrix(0.0087890625,0,0,0.0087890625,24.3544921875,0)" xlink:href="#aM"/><use transform="matrix(0.0087890625,0,0,0.0087890625,30.2431640625,0)" xlink:href="#aL"/><use transform="matrix(0.0087890625,0,0,0.0087890625,34.6025390625,0)" xlink:href="#bc"/><use transform="matrix(0.0087890625,0,0,0.0087890625,41.2646484375,0)" xlink:href="#aL"/><use transform="matrix(0.0087890625,0,0,0.0087890625,45.6240234375,0)" xlink:href="#aC"/><use transform="matrix(0.0087890625,0,0,0.0087890625,56.0830078125,0)" xlink:href="#aJ"/></g><g id="ai"><use transform="matrix(0.0087890625,0,0,0.0087890625,0,0)" xlink:href="#aK"/><use transform="matrix(0.0087890625,0,0,0.0087890625,13.1484375,0)" xlink:href="#aB"/><use transform="matrix(0.0087890625,0,0,0.0087890625,23.94140625,0)" xlink:href="#aI"/><use transform="matrix(0.0087890625,0,0,0.0087890625,34.576171875,0)" xlink:href="#bc"/><use transform="matrix(0.0087890625,0,0,0.0087890625,41.23828125,0)" xlink:href="#aL"/><use transform="matrix(0.0087890625,0,0,0.0087890625,45.59765625,0)" xlink:href="#aA"/><use transform="matrix(0.0087890625,0,0,0.0087890625,52.6552734375,0)" xlink:href="#aY"/><use transform="matrix(0.0087890625,0,0,0.0087890625,68.4228515625,0)" xlink:href="#aJ"/><use transform="matrix(0.0087890625,0,0,0.0087890625,78.5302734375,0)" xlink:href="#aC"/><use transform="matrix(0.0087890625,0,0,0.0087890625,88.8134765625,0)" xlink:href="#aL"/><use transform="matrix(0.0087890625,0,0,0.0087890625,93.1728515625,0)" xlink:href="#bi"/><use transform="matrix(0.0087890625,0,0,0.0087890625,103.9658203125,0)" xlink:href="#aI"/></g><g id="aj"><use transform="matrix(0.0087890625,0,0,0.0087890625,0,0)" xlink:href="#aT"/><use transform="matrix(0.0087890625,0,0,0.0087890625,11.548828125,0)" xlink:href="#aD"/><use transform="matrix(0.0087890625,0,0,0.0087890625,22.04296875,0)" xlink:href="#be"/><use transform="matrix(0.0087890625,0,0,0.0087890625,32.677734375,0)" xlink:href="#aJ"/><use transform="matrix(0.0087890625,0,0,0.0087890625,42.78515625,0)" xlink:href="#aU"/><use transform="matrix(0.0087890625,0,0,0.0087890625,47.14453125,0)" xlink:href="#aJ"/></g><path d="M1096 418H916v-591h-14C865-111 790 24 577 24c-279 0-473-224-473-580 0-354 195-576 474-576 218 0 287 134 324 193h20v-179h174V418zM604-137c203 0 314-172 314-421 0-247-108-413-314-413-212 0-317 181-317 413 0 235 108 421 317 421" id="bq"/><g id="ak"><use transform="matrix(0.0087890625,0,0,0.0087890625,0,0)" xlink:href="#bq"/><use transform="matrix(0.0087890625,0,0,0.0087890625,11.021484375,0)" xlink:href="#aN"/><use transform="matrix(0.0087890625,0,0,0.0087890625,21.6650390625,0)" xlink:href="#aD"/></g><g id="al"><use transform="matrix(0.0087890625,0,0,0.0087890625,0,0)" xlink:href="#aI"/><use transform="matrix(0.0087890625,0,0,0.0087890625,10.634765625,0)" xlink:href="#aB"/></g><g id="am"><use transform="matrix(0.0087890625,0,0,0.0087890625,0,0)" xlink:href="#aE"/><use transform="matrix(0.0087890625,0,0,0.0087890625,9.5009765625,0)" xlink:href="#aD"/></g><g id="an"><use transform="matrix(0.0087890625,0,0,0.0087890625,0,0)" xlink:href="#bd"/><use transform="matrix(0.0087890625,0,0,0.0087890625,11.021484375,0)" xlink:href="#aN"/><use transform="matrix(0.0087890625,0,0,0.0087890625,21.6650390625,0)" xlink:href="#aF"/><use transform="matrix(0.0087890625,0,0,0.0087890625,32.6865234375,0)" xlink:href="#aB"/></g><g id="ao"><use transform="matrix(0.0087890625,0,0,0.0087890625,0,0)" xlink:href="#aJ"/><use transform="matrix(0.0087890625,0,0,0.0087890625,10.107421875,0)" xlink:href="#aH"/><use transform="matrix(0.0087890625,0,0,0.0087890625,21.146484375,0)" xlink:href="#aD"/><use transform="matrix(0.0087890625,0,0,0.0087890625,31.640625,0)" xlink:href="#aI"/><use transform="matrix(0.0087890625,0,0,0.0087890625,42.275390625,0)" xlink:href="#aF"/><use transform="matrix(0.0087890625,0,0,0.0087890625,53.296875,0)" xlink:href="#aD"/><use transform="matrix(0.0087890625,0,0,0.0087890625,63.791015625,0)" xlink:href="#aA"/></g><path fill="#6db1ff" d="M52 0l541-1490h220L1361 0h-200l-149-416H398L254 0H52zm404-582h497c-103-290-145-390-251-756-108 377-145 460-246 756" id="br"/><path fill="#6db1ff" d="M613 24c-304 0-509-231-509-576 0-350 205-580 509-580 216 0 392 114 453 309l-173 49c-33-115-133-197-280-197-223 0-326 196-326 419 0 220 103 415 326 415 150 0 252-85 285-206l172 49C1010-95 832 24 613 24" id="bs"/><path fill="#6db1ff" d="M628 24c-324 0-524-230-524-574 0-343 198-582 503-582 237 0 487 146 487 559v75H286c9 234 145 362 343 362 132 0 231-58 273-172l174 48C1024-91 857 24 628 24zM287-650h624c-17-190-120-322-304-322-192 0-309 151-320 322" id="bt"/><path fill="#6db1ff" d="M158 418v-1536h174v179h20c37-59 106-193 324-193 279 0 474 222 474 576 0 356-194 580-473 580-213 0-288-135-325-197h-14v591H158zm492-555c209 0 317-186 317-421 0-232-105-413-317-413-206 0-314 166-314 413 0 249 111 421 314 421" id="bu"/><path fill="#6db1ff" d="M598-1118v154H368v674c0 100 37 144 132 144 23 0 62-6 92-12L629-6c-37 13-88 20-134 20-193 0-307-107-307-290v-688H20v-154h168v-266h180v266h230" id="bv"/><path fill="#6db1ff" d="M471 26C259 26 90-98 90-318c0-256 228-303 435-329 202-27 287-16 287-108 0-139-79-219-234-219-161 0-248 86-283 164l-173-57c86-203 278-265 451-265 150 0 419 46 419 395V0H815v-152h-12C765-73 660 26 471 26zm31-159c199 0 310-134 310-271v-155c-30 35-226 55-295 64-131 17-246 59-246 186 0 116 97 176 231 176" id="bw"/><g id="ap"><use transform="matrix(0.008072916666666667,0,0,0.008072916666666667,0,0)" xlink:href="#br"/><use transform="matrix(0.008072916666666667,0,0,0.008072916666666667,11.407031250000001,0)" xlink:href="#bs"/><use transform="matrix(0.008072916666666667,0,0,0.008072916666666667,20.852343750000003,0)" xlink:href="#bt"/><use transform="matrix(0.008072916666666667,0,0,0.008072916666666667,30.491406250000004,0)" xlink:href="#bu"/><use transform="matrix(0.008072916666666667,0,0,0.008072916666666667,40.614843750000006,0)" xlink:href="#bv"/><use transform="matrix(0.008072916666666667,0,0,0.008072916666666667,46.10442708333333,0)" xlink:href="#bw"/></g><path fill="#6db1ff" d="M140 405l46-156c120 36 205 19 263-150l32-93L54-1118h197c107 313 237 620 324 950 87-331 219-637 326-950h196L606 167c-68 178-176 259-334 259-64 0-113-12-132-21" id="bx"/><use transform="matrix(0.008072916666666667,0,0,0.008072916666666667,0,0)" xlink:href="#bx" id="aq"/><path fill="#6db1ff" d="M158 0v-1118h180V0H158zm91-1301c-68 0-125-53-125-119s57-119 125-119c69 0 126 53 126 119s-57 119-126 119" id="by"/><path fill="#6db1ff" d="M158 0v-1118h174v172h12c41-113 157-188 290-188 26 0 70 2 91 3v181c-11-2-60-10-108-10-161 0-279 109-279 260V0H158" id="bz"/><g id="ar"><use transform="matrix(0.008072916666666667,0,0,0.008072916666666667,0,0)" xlink:href="#bs"/><use transform="matrix(0.008072916666666667,0,0,0.008072916666666667,9.445312500000002,0)" xlink:href="#by"/><use transform="matrix(0.008072916666666667,0,0,0.008072916666666667,13.44947916666667,0)" xlink:href="#bt"/><use transform="matrix(0.008072916666666667,0,0,0.008072916666666667,23.08854166666667,0)" xlink:href="#bz"/><use transform="matrix(0.008072916666666667,0,0,0.008072916666666667,29.571093750000003,0)" xlink:href="#bz"/><use transform="matrix(0.008072916666666667,0,0,0.008072916666666667,35.7953125,0)" xlink:href="#bw"/></g><g id="as"><use transform="matrix(0.005859375,0,0,0.005859375,0,0)" xlink:href="#bp"/><use transform="matrix(0.005859375,0,0,0.005859375,9.041015625,0)" xlink:href="#aB"/></g><g id="at"><use transform="matrix(0.005859375,0,0,0.005859375,0,0)" xlink:href="#aT"/><use transform="matrix(0.005859375,0,0,0.005859375,7.69921875,0)" xlink:href="#aL"/></g><path d="M784 20c-382 0-662-292-662-764 0-473 280-766 662-766s660 293 660 766c0 282-99 499-260 629l192 255h-198L1049-33C969 2 880 20 784 20zm-62-486h198l156 205c112-98 183-261 183-483 0-383-209-590-475-590-268 0-477 208-477 590 0 380 209 588 477 588 54 0 106-9 154-25" id="bA"/><g id="au"><use transform="matrix(0.005859375,0,0,0.005859375,0,0)" xlink:href="#bA"/><use transform="matrix(0.005859375,0,0,0.005859375,9.17578125,0)" xlink:href="#aN"/><use transform="matrix(0.005859375,0,0,0.005859375,16.271484375,0)" xlink:href="#aL"/><use transform="matrix(0.005859375,0,0,0.005859375,19.177734375,0)" xlink:href="#aD"/><use transform="matrix(0.005859375,0,0,0.005859375,26.173828125,0)" xlink:href="#aA"/><use transform="matrix(0.005859375,0,0,0.005859375,30.4921875,0)" xlink:href="#aD"/></g><g id="av"><use transform="matrix(0.005859375,0,0,0.005859375,0,0)" xlink:href="#aE"/><use transform="matrix(0.005859375,0,0,0.005859375,6.333984375,0)" xlink:href="#aB"/><use transform="matrix(0.005859375,0,0,0.005859375,13.529296875,0)" xlink:href="#aU"/><use transform="matrix(0.005859375,0,0,0.005859375,16.435546875,0)" xlink:href="#aL"/><use transform="matrix(0.005859375,0,0,0.005859375,19.341796875,0)" xlink:href="#aC"/><use transform="matrix(0.005859375,0,0,0.005859375,26.197265625,0)" xlink:href="#aL"/><use transform="matrix(0.005859375,0,0,0.005859375,29.103515625,0)" xlink:href="#aM"/><use transform="matrix(0.005859375,0,0,0.005859375,33.087890625,0)" xlink:href="#aJ"/><use transform="matrix(0.005859375,0,0,0.005859375,39.826171875,0)" xlink:href="#aA"/></g><g id="aw"><use transform="matrix(0.005859375,0,0,0.005859375,0,0)" xlink:href="#aN"/><use transform="matrix(0.005859375,0,0,0.005859375,7.095703125,0)" xlink:href="#aI"/><use transform="matrix(0.005859375,0,0,0.005859375,14.185546875,0)" xlink:href="#aJ"/></g><g id="ax"><use transform="matrix(0.005859375,0,0,0.005859375,0,0)" xlink:href="#aI"/><use transform="matrix(0.005859375,0,0,0.005859375,7.08984375,0)" xlink:href="#aN"/><use transform="matrix(0.005859375,0,0,0.005859375,14.185546875,0)" xlink:href="#aD"/><use transform="matrix(0.005859375,0,0,0.005859375,20.947265625,0)" xlink:href="#bh"/><use transform="matrix(0.005859375,0,0,0.005859375,27.6328125,0)" xlink:href="#aJ"/></g><g id="ay"><use transform="matrix(0.005859375,0,0,0.005859375,0,0)" xlink:href="#aC"/><use transform="matrix(0.005859375,0,0,0.005859375,6.85546875,0)" xlink:href="#aL"/><use transform="matrix(0.005859375,0,0,0.005859375,9.76171875,0)" xlink:href="#aM"/><use transform="matrix(0.005859375,0,0,0.005859375,13.74609375,0)" xlink:href="#aJ"/><use transform="matrix(0.005859375,0,0,0.005859375,20.484375,0)" xlink:href="#bn"/></g></defs></g></svg>